<?xml version="1.0" encoding="iso-8859-1"?>
<!-- Generator: Adobe Illustrator 19.0.0, SVG Export Plug-In . SVG Version: 6.00 Build 0)  -->
<svg version="1.1" id="Layer_1" xmlns="http://www.w3.org/2000/svg" xmlns:xlink="http://www.w3.org/1999/xlink" x="0px" y="0px"
	 viewBox="0 0 508 508" style="enable-background:new 0 0 508 508;" xml:space="preserve">
<circle style="fill:#324A5E;" cx="254" cy="254" r="254"/>
<path style="fill:#FFD05B;" d="M181.2,118.4c-4,2.8-5.6,8-4.8,12.4c1.6,7.6,0,16.4,0,24.4c0.4,16.8,7.2,33.2,4,50
	c-3.6,19.6-20.8,23.2-30,40.4c-2.4,4.4,0.8,9.6,5.6,10.4c3.6,0.4,6.8,2,7.6,5.6c0.8,2.4-0.8,13.2-0.8,15.6
	c0,9.2,26.4,14.8,34.4,19.2c-6.4,1.2-23.6,6.4-28.4,12.4c-1.2,1.6-0.4,4,1.6,4.4c6.8,2.4,11.2,10.4,12.4,18c1.2,8.8-0.4,17.6,1.6,26
	c4.4,18.4,30.4,12,47.2,2.8l-1.6,48.4l119.2-20v-10.8c0,0-3.2-40,10.8-66c7.6-14.4,13.2-28,20.8-42.4c10-20,14.4-41.6,15.6-63.6
	C401.6,104.4,284,40,181.2,118.4z"/>
<g>
	<rect x="64" y="292" style="fill:#E6E9EE;" width="81.6" height="12.4"/>
	<polygon style="fill:#E6E9EE;" points="140.4,276.8 90.8,255.2 96,244 145.2,265.6 	"/>
	<polygon style="fill:#E6E9EE;" points="140.4,319.2 90.8,340.8 96,352.4 145.2,330.8 	"/>
</g>
<g>
</g>
<g>
</g>
<g>
</g>
<g>
</g>
<g>
</g>
<g>
</g>
<g>
</g>
<g>
</g>
<g>
</g>
<g>
</g>
<g>
</g>
<g>
</g>
<g>
</g>
<g>
</g>
<g>
</g>
</svg>
